<?xml version="1.0" encoding="utf-8"?>
<!-- Generator: Adobe Illustrator 28.2.0, SVG Export Plug-In . SVG Version: 6.00 Build 0)  -->
<svg version="1.1" id="Ebene_1" xmlns="http://www.w3.org/2000/svg" xmlns:xlink="http://www.w3.org/1999/xlink" x="0px" y="0px"
	 viewBox="0 0 446.1 376" enable-background="new 0 0 446.1 376" xml:space="preserve">
<path fill="#FFFFFF" d="M0,51.3V376l204.3-43.4V376l241.8-51.3v-266L242,102.1V0L0,51.3z"/>
<path d="M33.7,109.8l45.5-9.8v13.5l-25.8,39.6l15.5-3.1l0.2-7.8l12.5-2.8v21l-48.1,10V157l25.9-39.5l-14.2,2.9l-0.5,7l-11,2.2
	C33.7,129.6,33.7,109.8,33.7,109.8z M120.4,63.6l22.5-5v72.1c0,3.2,2,3.1,6.2,2v13.4l-11.8,2.3c-4.6,1-8.4,0.2-9.1-6.5
	c-4.2,10.3-13.9,13.4-20.9,13.4c-12.2,0-18.4-9.2-18.4-26.7c0-30.5,17-37,27.3-37c5.7,0,8.2,3.2,9.8,4.9V75.2l-5.6,1.4
	C120.3,76.7,120.4,63.6,120.4,63.6z M106.9,125.4c0,9.6,3,15.2,8.7,15.2c5,0,10.4-4.4,10.4-18.8c0-12.9-3.9-17.2-8.3-17.2
	C114.2,104.5,106.9,108.7,106.9,125.4z M156.5,96.8V83.6l6.1-1.3V71.6c0-16.9,11.6-23.9,37.6-23.8v16.4l-11.7,2.3v-5.4
	c-5.7-0.3-9.6,1.7-9.6,7v10.6l14.5-3v13.1l-13.6,3v34.4l8.6-1.8v13.2l-31.7,6.6V131l6-1.2V95.3L156.5,96.8z M33.4,240.1v-38.6
	l40.5-8.6c10.2-2.2,13.7,2.7,14.8,12C103.4,186,125.8,178,136,178c14.9,0,22.5,9.8,22.5,28.9v82.6l-51.9,11v-69.1c0-4.1-3.6-6-8-5.1
	l-4.1,0.8v76.1l-52,11.1v-76C42.5,238.2,33.4,240.1,33.4,240.1z M237.9,157.2c30.6,0,46.9,22.8,44.1,59.2l-64.9,13.8
	c0.9,8.6,4.7,12.6,9.8,12.6c5.8,0,14.7-4,20.2-11.5l29.9-6.2v25.4c-16.6,17.7-46.1,28.9-67.3,28.9c-31.2,0-43.5-21.7-43.5-49.9
	C166.3,178.2,208.4,157.2,237.9,157.2L237.9,157.2z M234.4,206.5c-0.6-7.2-3.2-12.5-7.4-12.5c-5.5,0-9.3,5.8-10.4,16.2L234.4,206.5z
	 M362.9,130.6c26.6,0,45.6,17.7,45.6,48.9c0,51.6-42,73.7-75.5,73.7c-28.8,0-43.9-18.2-43.9-48.2
	C289.2,147.8,337.5,130.6,362.9,130.6z M339.4,195.2c0,16.4,3,23.6,8,23.6c4.7,0,10.2-4.9,10.2-27.2c0-15.2-1.6-23.7-7.6-23.7
	C343.8,167.9,339.4,176,339.4,195.2z M294.8,289.1v20.1l109.1-23v-20.4L294.8,289.1z"/>
</svg>
