<?xml version="1.0" encoding="utf-8"?>
<!-- Generator: Adobe Illustrator 28.2.0, SVG Export Plug-In . SVG Version: 6.00 Build 0)  -->
<svg version="1.1" id="Ebene_1" xmlns="http://www.w3.org/2000/svg" xmlns:xlink="http://www.w3.org/1999/xlink" x="0px" y="0px"
	 viewBox="0 0 100.41 32.67" enable-background="new 0 0 100.41 32.67" xml:space="preserve">
<g>
	<path fill="#00687C" d="M3.68,5.7v1.63C4.3,6.69,5.04,6.18,5.85,5.82c0.79-0.33,1.64-0.5,2.5-0.5c1.88-0.02,3.67,0.78,4.91,2.19
		c1.37,1.53,2.09,3.54,2,5.6c0.06,2.05-0.7,4.03-2.1,5.52c-1.25,1.42-3.06,2.23-4.95,2.22c-0.82,0.01-1.62-0.15-2.38-0.45
		c-0.81-0.36-1.55-0.87-2.18-1.49v7H0V5.7H3.68z M7.57,8.7c-1.09-0.03-2.15,0.41-2.9,1.2c-0.79,0.84-1.2,1.97-1.15,3.12
		c-0.05,1.17,0.36,2.31,1.15,3.18c0.75,0.8,1.8,1.25,2.9,1.22c1.09,0.02,2.13-0.43,2.86-1.24c0.79-0.85,1.21-1.99,1.16-3.15
		c0.02-1.12-0.39-2.2-1.14-3.03C9.72,9.18,8.67,8.72,7.57,8.74 M17,20.47h3.68v-5.93c-0.04-1,0.02-2.01,0.16-3
		c0.17-0.76,0.56-1.46,1.12-2c0.52-0.49,1.21-0.76,1.93-0.74c0.52-0.02,1.04,0.13,1.46,0.44c0.43,0.35,0.72,0.82,0.84,1.36
		c0.19,1.12,0.27,2.26,0.22,3.4v6.47h3.65v-9.76c0.1-1.41-0.36-2.8-1.29-3.87c-0.97-1-2.31-1.55-3.7-1.52
		c-0.77,0-1.53,0.16-2.23,0.47c-0.79,0.35-1.53,0.82-2.18,1.4V0H17V20.47z M39.19,5.32c1.38-0.02,2.73,0.32,3.93,1
		C44.33,7,45.32,7.99,46,9.2c1.39,2.41,1.39,5.39,0,7.8c-0.67,1.19-1.65,2.17-2.83,2.85c-1.21,0.67-2.57,1.02-3.95,1
		c-2.05,0.03-4.01-0.79-5.43-2.26c-1.47-1.45-2.28-3.43-2.24-5.49c-0.05-2.2,0.88-4.32,2.54-5.77c1.38-1.3,3.21-2.01,5.11-2
		 M39.27,8.82c-1.09-0.04-2.14,0.39-2.89,1.18c-0.78,0.83-1.19,1.94-1.15,3.08c-0.05,1.15,0.36,2.27,1.14,3.12
		c0.74,0.79,1.79,1.23,2.87,1.19c1.09,0.03,2.15-0.41,2.9-1.2c0.78-0.84,1.19-1.96,1.15-3.11c0.05-1.14-0.36-2.25-1.13-3.08
		c-0.75-0.79-1.81-1.22-2.9-1.19 M63.74,14.16H51.83c0.14,0.97,0.63,1.86,1.38,2.5c0.81,0.64,1.83,0.97,2.86,0.93
		c1.34,0.01,2.62-0.51,3.57-1.45l3.12,1.47c-0.7,1.04-1.65,1.88-2.76,2.45c-1.21,0.56-2.53,0.83-3.86,0.79
		c-2.11,0.08-4.16-0.71-5.66-2.19c-1.46-1.45-2.25-3.44-2.19-5.49c-0.06-2.09,0.72-4.12,2.18-5.62c1.43-1.47,3.41-2.28,5.46-2.23
		c2.12-0.08,4.18,0.73,5.68,2.23c1.49,1.59,2.28,3.72,2.18,5.9L63.74,14.16z M60,11.24c-0.24-0.81-0.75-1.52-1.45-2
		c-0.73-0.52-1.61-0.79-2.5-0.77c-0.98-0.02-1.93,0.29-2.72,0.87c-0.59,0.51-1.05,1.17-1.33,1.9L60,11.24z M65.32,20.47h3.71v-5.92
		c-0.04-1,0.02-2.01,0.16-3c0.16-0.79,0.55-1.52,1.12-2.08c0.52-0.49,1.21-0.76,1.92-0.75c0.52-0.02,1.04,0.14,1.46,0.45
		c0.41,0.34,0.71,0.8,0.83,1.32c0.21,1.16,0.3,2.33,0.26,3.51v6.47h3.67v-9.76c0.1-1.4-0.36-2.79-1.29-3.85
		c-0.97-1.01-2.33-1.57-3.73-1.54c-0.72,0-1.43,0.14-2.09,0.42c-0.83,0.37-1.6,0.86-2.28,1.47V5.7h-3.71L65.32,20.47z M80.37,20.47
		h3.71V5.7H80.4L80.37,20.47z M90.66,12.7l-5.61,7.77h4.23l3.5-4.84l3.51,4.84h4.3l-5.67-7.82l5-6.95h-4.21l-2.91,4l-2.92-4h-4.3
		L90.66,12.7z M17.36,25.86l2.1,5.59l2.16-5.59h0.73l-2.57,6.6h-0.67l-2.51-6.6H17.36z M29.45,29.16c0,1.92-1.55,3.47-3.47,3.47
		c-0.91,0-1.78-0.36-2.43-0.99c-0.66-0.65-1.02-1.55-1-2.48c-0.02-0.93,0.34-1.83,1-2.49c1.33-1.36,3.51-1.39,4.86-0.06
		C29.1,27.28,29.47,28.2,29.45,29.16z M28.73,29.16c0.02-0.73-0.24-1.45-0.72-2c-1.03-1.1-2.77-1.16-3.87-0.13
		c-0.04,0.04-0.09,0.08-0.13,0.13c-0.97,1.16-0.97,2.84,0,4c1.03,1.1,2.77,1.16,3.87,0.13c0.04-0.04,0.09-0.08,0.13-0.13
		C28.5,30.61,28.75,29.89,28.73,29.16z M31.59,25.86l3.93,5.59v-5.59h0.68v6.6h-0.84l-3.94-5.65v5.65h-0.67v-6.6H31.59z M41,30.72
		l-0.73,1.74h-0.78l2.87-6.6H43l2.88,6.6h-0.79l-0.72-1.74H41z M42.69,26.64l-1.44,3.47h2.86L42.69,26.64z M47.44,29.39v3.07h-0.67
		v-6.6h2c0.57-0.04,1.13,0.12,1.6,0.44c0.41,0.31,0.65,0.8,0.63,1.32c0.02,0.43-0.14,0.84-0.44,1.15c-0.33,0.34-0.78,0.54-1.25,0.55
		l1.91,3.14H50.4l-1.81-3.07H47.44z M47.44,26.47v2.3h1.19c1.08,0,1.61-0.38,1.61-1.15s-0.53-1.15-1.61-1.15H47.44z M52.22,32.46
		v-6.6h2.19c0.86-0.02,1.69,0.27,2.35,0.82c1.37,1.2,1.5,3.28,0.31,4.64c-0.1,0.11-0.2,0.21-0.31,0.31
		c-0.66,0.55-1.49,0.85-2.35,0.83H52.22z M52.89,26.46v5.37h1.31c0.83,0.05,1.64-0.26,2.24-0.83c0.47-0.5,0.73-1.16,0.71-1.85
		c0.02-0.69-0.24-1.36-0.71-1.86c-0.6-0.57-1.41-0.88-2.24-0.83L52.89,26.46z M66.3,25.86V30c0.02,0.61-0.14,1.21-0.46,1.72
		c-0.9,1.08-2.5,1.22-3.58,0.32c-0.12-0.1-0.22-0.21-0.32-0.32c-0.33-0.51-0.49-1.11-0.47-1.72v-4.14h0.67v4.06
		c-0.07,0.66,0.19,1.31,0.68,1.75c0.31,0.23,0.69,0.35,1.07,0.34c0.4,0.02,0.79-0.1,1.11-0.34c0.49-0.44,0.75-1.09,0.68-1.75v-4.06
		H66.3z M68.78,25.86l3.94,5.59v-5.59h0.68v6.6h-0.84l-3.94-5.65v5.65h-0.67v-6.6H68.78z M75.07,32.46v-6.6h2.19
		c0.86-0.02,1.69,0.27,2.35,0.82c1.37,1.2,1.5,3.28,0.31,4.64c-0.1,0.11-0.2,0.21-0.31,0.31c-0.66,0.55-1.49,0.85-2.35,0.83H75.07z
		 M75.74,26.46v5.37h1.31c0.83,0.05,1.64-0.26,2.24-0.83c0.47-0.49,0.73-1.16,0.71-1.84c0.02-0.69-0.24-1.36-0.72-1.86
		c-0.6-0.57-1.41-0.88-2.24-0.83L75.74,26.46z M88.45,25.86v0.56l-3.85,5.42h3.91v0.62h-4.76V31.9l3.86-5.43h-3.8v-0.61H88.45z
		 M89.47,32.46v-6.6h2.19c0.86-0.02,1.69,0.27,2.35,0.82c1.37,1.2,1.5,3.28,0.31,4.64c-0.1,0.11-0.2,0.21-0.31,0.31
		c-0.66,0.55-1.49,0.85-2.35,0.83H89.47z M90.14,26.46v5.37h1.31c0.83,0.05,1.64-0.25,2.23-0.83c0.48-0.49,0.74-1.16,0.72-1.85
		c0.02-0.69-0.24-1.36-0.72-1.86c-0.6-0.57-1.4-0.87-2.23-0.83L90.14,26.46z M97.08,29.33v3.13h-0.67v-6.6h4v0.61h-3.33v2.25h3.08
		v0.61L97.08,29.33z"/>
</g>
</svg>
