<?xml version="1.0" encoding="utf-8"?>
<!-- Generator: Adobe Illustrator 28.2.0, SVG Export Plug-In . SVG Version: 6.00 Build 0)  -->
<svg version="1.1" id="Ebene_1" xmlns="http://www.w3.org/2000/svg" xmlns:xlink="http://www.w3.org/1999/xlink" x="0px" y="0px"
	 viewBox="0 0 84.1 42.4" style="enable-background:new 0 0 84.1 42.4;" xml:space="preserve">
<style type="text/css">
	.st0{fill:#2BE8BC;}
	.st1{fill:#2BE8BC;stroke:#2BE8BC;stroke-width:0.5;}
	.st2{fill:#2BE8BC;fill-opacity:0.248;}
</style>
<g>
	<path class="st0" d="M5.2,35.5L3.5,42c0,0.2-0.1,0.3-0.3,0.3h-1c-0.1,0-0.2-0.1-0.3-0.3l-1.5-6.5c0-0.1,0-0.2,0.1-0.3
		c0.1-0.1,0.2-0.1,0.3-0.1h0.8c0.1,0,0.1,0,0.2,0.1c0.1,0,0.1,0.1,0.1,0.2l0.8,4.1c0,0.1,0,0.1,0.1,0.1c0,0,0.1,0,0.1-0.1l0.9-4.1
		c0-0.2,0.2-0.3,0.3-0.3h0.7C5.1,35.1,5.2,35.2,5.2,35.5C5.2,35.4,5.2,35.4,5.2,35.5L5.2,35.5z M10.6,40.5c0,0.5-0.2,1-0.6,1.4
		c-0.4,0.4-0.8,0.6-1.4,0.6H8.2c-0.5,0-1-0.2-1.4-0.6c-0.4-0.4-0.6-0.8-0.6-1.4v-3.6c0-0.5,0.2-1,0.6-1.3c0.4-0.4,0.9-0.6,1.4-0.6
		h0.5c0.5,0,1,0.2,1.4,0.6c0.4,0.4,0.6,0.8,0.6,1.3L10.6,40.5L10.6,40.5z M9.2,40.5v-3.6c0-0.2-0.1-0.3-0.2-0.4
		c-0.1-0.1-0.3-0.2-0.4-0.2H8.3c-0.2,0-0.3,0.1-0.4,0.2c-0.1,0.1-0.2,0.3-0.2,0.4v3.5c0,0.2,0.1,0.3,0.2,0.4C8,41,8.2,41.1,8.3,41.1
		h0.3c0.2,0,0.3-0.1,0.4-0.2C9.2,40.8,9.2,40.6,9.2,40.5L9.2,40.5z M16.5,41.9c0,0.2-0.1,0.3-0.3,0.3h-0.8c-0.2,0-0.3-0.1-0.3-0.2
		c0,0,0-0.1,0-0.1v-5.1c0-0.4-0.2-0.6-0.5-0.6c-0.3,0-0.5,0.1-0.7,0.2c-0.2,0.2-0.3,0.3-0.3,0.5v4.9c0,0.2-0.1,0.3-0.2,0.3
		c0,0-0.1,0-0.1,0h-0.8c-0.2,0-0.3-0.1-0.3-0.2c0,0,0-0.1,0-0.1v-6.5c0-0.2,0.1-0.3,0.2-0.3c0,0,0.1,0,0.1,0h0.8
		c0.2,0,0.3,0.1,0.3,0.3c0,0,0,0.1,0,0.1v0.2c0,0.1,0,0.1,0.1,0.1c0,0,0.1,0,0.2-0.1c0.4-0.4,0.9-0.6,1.4-0.6c0.4,0,0.7,0.1,0.9,0.4
		c0.2,0.3,0.4,0.6,0.4,1C16.5,36.3,16.5,41.9,16.5,41.9z M27.1,41.9c0,0.1,0,0.2-0.1,0.2c-0.1,0.1-0.1,0.1-0.2,0.1h-1.1
		c-0.2,0-0.3-0.1-0.3-0.3l-0.3-1.4c0-0.2-0.1-0.3-0.3-0.3h-1.4c-0.2,0-0.3,0.1-0.3,0.3c0,0,0,0,0,0l-0.2,1.4c0,0.2-0.2,0.3-0.3,0.3
		h-1.1c-0.1,0-0.2,0-0.2-0.1c-0.1-0.1-0.1-0.2-0.1-0.2l1.7-8.8c0-0.2,0.2-0.3,0.3-0.3h1.7c0.2,0,0.3,0.1,0.3,0.3L27.1,41.9z
		 M24.7,38.3l-0.6-3.1c0-0.2-0.1-0.2-0.1-0.2c-0.1,0-0.1,0.1-0.1,0.2l-0.5,3.1c0,0.2,0,0.3,0.3,0.3h0.8c0.1,0,0.2,0,0.2-0.1
		C24.7,38.5,24.7,38.4,24.7,38.3z M33.7,41.9C33.7,42,33.7,42,33.7,41.9c0,0.2-0.1,0.3-0.2,0.3h-1c-0.1,0-0.2-0.1-0.3-0.3l-1.2-3.4
		c-0.1-0.2-0.1-0.2-0.2-0.2h-0.5c-0.2,0-0.3,0.1-0.3,0.3v3.3c0,0.1,0,0.2-0.1,0.2c-0.1,0.1-0.1,0.1-0.2,0.1h-1
		c-0.2,0-0.3-0.1-0.3-0.3v-8.8c0-0.2,0.1-0.3,0.3-0.3H31c0.7,0,1.3,0.2,1.8,0.7c0.5,0.5,0.8,1.1,0.7,1.8v0.5c0,0.9-0.4,1.7-1.2,2.1
		c0,0,0,0.1,0,0.2L33.7,41.9z M32,36v-0.8c0-0.2-0.1-0.5-0.3-0.7c-0.2-0.2-0.4-0.3-0.7-0.3h-0.9c-0.2,0-0.3,0.1-0.3,0.3v2
		c0,0.2,0.1,0.3,0.3,0.3h0.9c0.3,0,0.5-0.1,0.7-0.3C31.9,36.5,32,36.2,32,36L32,36z M40.3,39.6c0,0.7-0.3,1.4-0.8,1.9
		c-0.5,0.5-1.2,0.8-1.9,0.8h-2.3c-0.1,0-0.2,0-0.2-0.1C35,42.1,35,42,35,41.9v-8.8c0-0.2,0.1-0.3,0.2-0.3c0,0,0.1,0,0.1,0h2.3
		c0.7,0,1.4,0.3,1.9,0.8c0.5,0.5,0.8,1.2,0.8,1.9C40.3,35.5,40.3,39.6,40.3,39.6z M38.7,39.5v-3.9c0-0.4-0.1-0.7-0.4-0.9
		c-0.3-0.3-0.6-0.4-1-0.4H37c-0.2,0-0.3,0.1-0.3,0.3v5.8c0,0.1,0,0.2,0.1,0.2c0.1,0.1,0.2,0.1,0.2,0.1h0.4c0.4,0,0.7-0.1,1-0.4
		C38.6,40.2,38.7,39.9,38.7,39.5C38.7,39.5,38.7,39.5,38.7,39.5z M49.7,41.9c0,0.2-0.1,0.3-0.2,0.3c0,0-0.1,0-0.1,0h-0.8
		c-0.1,0-0.2-0.1-0.3-0.3c-0.1-0.2-0.2-0.3-0.3-0.3c-0.1,0-0.2,0.1-0.5,0.3c-0.2,0.2-0.4,0.3-0.7,0.3h-0.4c-0.3,0-0.6-0.2-0.8-0.4
		c-0.2-0.2-0.3-0.5-0.4-0.9v-5.7c0-0.2,0.1-0.3,0.2-0.3c0,0,0.1,0,0.1,0h0.8c0.2,0,0.3,0.1,0.3,0.3c0,0,0,0.1,0,0.1v4.8
		c0,0.5,0.2,0.7,0.7,0.7c0.2,0,0.4-0.1,0.6-0.2c0.2-0.1,0.3-0.3,0.3-0.5v-4.8c0-0.2,0.1-0.3,0.2-0.3c0,0,0.1,0,0.1,0h0.8
		c0.2,0,0.3,0.1,0.3,0.2c0,0,0,0.1,0,0.1C49.7,35.4,49.7,41.9,49.7,41.9z M55.6,41.9c0,0.2-0.1,0.3-0.3,0.3h-0.8
		c-0.2,0-0.3-0.1-0.3-0.2c0,0,0-0.1,0-0.1v-5.1c0-0.4-0.2-0.6-0.5-0.6c-0.3,0-0.5,0.1-0.7,0.2c-0.2,0.2-0.3,0.3-0.3,0.5v4.9
		c0,0.2-0.1,0.3-0.2,0.3c0,0-0.1,0-0.1,0h-0.8c-0.2,0-0.3-0.1-0.3-0.2c0,0,0-0.1,0-0.1v-6.5c0-0.2,0.1-0.3,0.2-0.3c0,0,0.1,0,0.1,0
		h0.8c0.2,0,0.3,0.1,0.3,0.3c0,0,0,0.1,0,0.1v0.2c0,0.1,0,0.1,0.1,0.1s0.1,0,0.2-0.1c0.4-0.4,0.9-0.6,1.4-0.6c0.4,0,0.7,0.1,0.9,0.4
		c0.2,0.3,0.4,0.6,0.4,1L55.6,41.9L55.6,41.9z M61.6,41.9c0,0.2-0.1,0.3-0.2,0.3c0,0-0.1,0-0.1,0h-0.8c-0.2,0-0.3-0.1-0.3-0.2
		c0,0,0-0.1,0-0.1c0-0.1,0-0.1-0.1-0.1c-0.1,0-0.1,0.1-0.2,0.1c-0.1,0.1-0.3,0.2-0.4,0.3c-0.2,0.1-0.4,0.1-0.7,0.1h-0.4
		c-0.4,0-0.7-0.2-1-0.4c-0.3-0.3-0.4-0.6-0.4-1v-4.7c0-0.4,0.1-0.7,0.4-1c0.3-0.3,0.6-0.4,1-0.4h0.4c0.3,0,0.5,0,0.8,0.1
		c0.1,0.1,0.2,0.2,0.3,0.3c0.1,0.1,0.1,0.1,0.2,0.1c0.1,0,0.1-0.1,0.1-0.2V33c0-0.2,0.1-0.3,0.2-0.3c0,0,0.1,0,0.1,0h0.8
		c0.2,0,0.3,0.1,0.3,0.3c0,0,0,0.1,0,0.1L61.6,41.9L61.6,41.9z M60.1,40.4v-3.5c0-0.1-0.1-0.2-0.2-0.3c-0.1-0.1-0.2-0.2-0.4-0.2
		h-0.4c-0.1,0-0.3,0.1-0.4,0.2c-0.1,0.1-0.2,0.2-0.2,0.4v3.5c0,0.2,0.1,0.3,0.2,0.4c0.1,0.1,0.3,0.2,0.4,0.2h0.4
		c0.2,0,0.3-0.1,0.4-0.2C60,40.7,60,40.6,60.1,40.4L60.1,40.4z M71.5,41.9c0,0.2-0.1,0.3-0.2,0.3c0,0-0.1,0-0.1,0h-4.6
		c-0.2,0-0.3-0.1-0.3-0.3v-0.6c0-0.1,0-0.3,0.1-0.4l3.2-6.5c0,0,0,0,0-0.1c0-0.1-0.1-0.1-0.2-0.1h-2.6c-0.2,0-0.3-0.1-0.3-0.3v-0.8
		c0-0.2,0.1-0.3,0.3-0.3h4.3c0.2,0,0.3,0.1,0.3,0.2c0,0,0,0,0,0.1v0.7c0,0.1,0,0.3-0.1,0.4l-3.2,6.4c-0.1,0.1,0,0.2,0.1,0.2h2.9
		c0.2,0,0.3,0.1,0.3,0.3C71.5,41,71.5,41.9,71.5,41.9z M78.1,39.6c0,0.7-0.3,1.4-0.8,1.9c-0.5,0.5-1.2,0.8-1.9,0.8h-2.3
		c-0.1,0-0.2,0-0.2-0.1c-0.1-0.1-0.1-0.2-0.1-0.2v-8.8c0-0.2,0.1-0.3,0.2-0.3c0,0,0.1,0,0.1,0h2.3c0.7,0,1.4,0.3,1.9,0.8
		c0.5,0.5,0.8,1.2,0.8,1.9V39.6z M76.4,39.5v-3.9c0-0.4-0.1-0.7-0.4-0.9c-0.3-0.3-0.6-0.4-0.9-0.4h-0.4c-0.2,0-0.3,0.1-0.3,0.3v5.8
		c0,0.1,0,0.2,0.1,0.2c0.1,0.1,0.1,0.1,0.2,0.1h0.4c0.4,0,0.7-0.1,0.9-0.4C76.3,40.2,76.4,39.9,76.4,39.5L76.4,39.5L76.4,39.5z
		 M84,34c0,0.1,0,0.2-0.1,0.2c-0.1,0.1-0.1,0.1-0.2,0.1h-2.3c-0.1,0-0.2,0-0.2,0.1c-0.1,0.1-0.1,0.1-0.1,0.2v1.6
		c0,0.2,0.1,0.3,0.3,0.3h1.7c0.1,0,0.2,0,0.2,0.1c0.1,0.1,0.1,0.1,0.1,0.2v0.8c0,0.1,0,0.2-0.1,0.2c-0.1,0.1-0.2,0.1-0.2,0.1h-1.7
		c-0.2,0-0.3,0.1-0.3,0.3v3.5c0,0.2-0.1,0.3-0.2,0.3c0,0-0.1,0-0.1,0h-1c-0.1,0-0.2,0-0.2-0.1c-0.1-0.1-0.1-0.2-0.1-0.2v-8.8
		c0-0.1,0-0.2,0.1-0.2c0.1-0.1,0.1-0.1,0.2-0.1h3.9c0.2,0,0.3,0.1,0.3,0.2c0,0,0,0.1,0,0.1C84,33.2,84,34,84,34z"/>
	<path class="st1" d="M11.3,0.4v5.7l6.1-5.2c0.5-0.3,1.1-0.5,1.7-0.5h3.8c0.8,0,1.6,0.4,2.2,1c0.6-0.6,1.4-1,2.3-1h14.4
		c1.6,0,3,1.3,3,2.9v2.8l6.1-5.2c0.5-0.3,1.1-0.5,1.7-0.5h3.8c1.6,0,2.9,1.3,2.9,2.9v2.4l6.6-5.3H80c1.6,0,3,1.3,3,3v23
		c0,1.6-1.3,3-3,3h-7.9v-8.5h-3.5v8.5h-7.9c-0.9,0-1.7-0.4-2.3-1c-0.6,0.6-1.3,1-2.2,1h-3.8c-0.6,0-1.2-0.2-1.7-0.5l0,0l-6-5.2v2.8
		c0,1.6-1.3,3-3,3h-7.9v-2.4c-0.9,0.7-2.3,1.8-2.4,1.9c-0.4,0.2-0.8,0.4-1.3,0.5h-2.8c-0.9,0-1.7-0.4-2.3-1c-0.6,0.6-1.4,1-2.2,1H19
		c-0.6,0-1.2-0.2-1.7-0.5l0,0l-6-5.2v5.7H3.4c-1.6,0-3-1.3-3-3v-23c0-1.6,1.3-3,3-3L11.3,0.4L11.3,0.4z M22.8,1.8H19
		c-0.3,0-0.6,0.1-0.9,0.3L9.9,9.2V1.8H3.4c-0.8,0-1.5,0.7-1.5,1.5v23c0,0.8,0.7,1.5,1.5,1.5h6.5v-7.4l8.3,7.1
		c0.3,0.2,0.6,0.3,0.9,0.3h3.8c0.8,0,1.5-0.7,1.5-1.5v-4.1L15,14.8l9.3-7.4V3.3C24.3,2.5,23.6,1.8,22.8,1.8L22.8,1.8z M80,1.8H66.2
		l-7.1,5.7v18.8c0,0.8,0.7,1.5,1.5,1.5h6.5v-8.5h6.4v8.5H80c0.8,0,1.5-0.7,1.5-1.5v-23C81.5,2.5,80.8,1.8,80,1.8L80,1.8z M32.2,8.7
		h-6.5v17.6c0,0.9,0.7,1.5,1.5,1.6h2.7c0.2,0,0.4-0.1,0.6-0.2c0.1-0.1,1.4-1.1,2.7-2.2l0.4-0.3l0.2-0.1V10.2
		C33.7,9.3,33.1,8.7,32.2,8.7L32.2,8.7z M41.7,1.8h-6.5v26.1h6.5c0.9,0,1.5-0.7,1.5-1.5v-5.9l8.3,7.1c0.3,0.2,0.6,0.3,0.9,0.3h3.7
		c0.8,0,1.5-0.7,1.5-1.5v-4.1l-9.2-7.4l9.2-7.4V3.3c0-0.8-0.7-1.5-1.5-1.5h-3.7c-0.3,0-0.6,0.1-0.9,0.3l-8.3,7.1V3.3
		C43.2,2.5,42.5,1.8,41.7,1.8L41.7,1.8z M24.3,9.2l-7,5.6l7,5.6V9.2L24.3,9.2z M57.6,9.2l-7,5.6l7,5.6V9.2L57.6,9.2z M73.5,7.2
		l0,6.2h-6.4V7.2C67.1,7.2,73.5,7.2,73.5,7.2z M72.1,8.7h-3.5V12h3.5V8.7z M33.8,1.8h-6.5c-0.8,0-1.4,0.5-1.5,1.3v4.2h8L33.8,1.8
		L33.8,1.8z"/>
	<path class="st2" d="M22.8,1.8c0.8,0,1.5,0.7,1.5,1.5v4.1L15,14.8l9.3,7.4v4.1c0,0.8-0.7,1.5-1.5,1.5H19c-0.3,0-0.6-0.1-0.9-0.3
		l-8.3-7.1v7.4H3.4c-0.8,0-1.5-0.7-1.5-1.5v-23c0-0.8,0.7-1.5,1.5-1.5h6.5v7.4l8.3-7.1c0.3-0.2,0.6-0.3,0.9-0.3
		C19,1.8,22.8,1.8,22.8,1.8z M80,1.8c0.8,0,1.5,0.7,1.5,1.5v23c0,0.8-0.7,1.5-1.5,1.5h-6.5v-8.5h-6.4v8.5h-6.5
		c-0.8,0-1.5-0.7-1.5-1.5V7.5l7.1-5.7H80L80,1.8z M32.2,8.7c0.8,0,1.5,0.7,1.5,1.5l0,14.8c-1,0.8-2,1.6-2.6,2.1l-0.2,0.2
		c-0.2,0.2-0.4,0.3-0.4,0.3c-0.2,0.1-0.4,0.2-0.6,0.2h-2.7c-0.9,0-1.5-0.7-1.5-1.6V8.7L32.2,8.7L32.2,8.7z M41.7,1.8
		c0.8,0,1.5,0.7,1.5,1.5v5.9l8.3-7.1c0.3-0.2,0.6-0.3,0.9-0.3h3.7c0.8,0,1.5,0.7,1.5,1.5v4.1l-9.2,7.4l9.2,7.4v4.1
		c0,0.8-0.7,1.5-1.5,1.5h-3.7c-0.3,0-0.6-0.1-0.9-0.3l-8.3-7.1v5.9c0,0.9-0.7,1.5-1.5,1.5h-6.5V1.8C35.2,1.8,41.7,1.8,41.7,1.8z
		 M73.5,7.2h-6.4v6.2h6.4C73.5,13.4,73.5,7.2,73.5,7.2z M33.8,1.8v5.4l-8,0V3.1c0.1-0.7,0.8-1.3,1.5-1.3H33.8z"/>
</g>
</svg>
