<?xml version="1.0" encoding="utf-8"?>
<!-- Generator: Adobe Illustrator 28.2.0, SVG Export Plug-In . SVG Version: 6.00 Build 0)  -->
<svg version="1.1" id="zdfinfo" xmlns="http://www.w3.org/2000/svg" xmlns:xlink="http://www.w3.org/1999/xlink" x="0px" y="0px"
	 viewBox="0 0 560 164" enable-background="new 0 0 560 164" xml:space="preserve">
<g id="logo">
	<g id="zdf">
		<path id="z" fill="#FF7E09" d="M2.5,52h81v17.5L31,125h31.5v-18h21v36H0v-17l52.6-55.6H24V87H2.5V52z"/>
		<path id="f" fill="#FF7E09" d="M197,143h49v-19h-13V72h17V52h-17v-4c0-7.3,0.8-8,7-8h11.5V21H228c-12.5,0-19,7.7-19,19v12h-12.5
			v20H209v52h-12V143z"/>
		<g id="d" transform="matrix(10.418802,0,0,4.5468231,1319.3233,438.74774)">
			<path id="d_00000178196021958207009450000010921234776276622511_" fill="#FF7E09" d="M-109.8-91.9v22.5h1.2v4.3h-3.6v-2.5
				c-1.2,2.5-1.5,2.5-2.6,2.5c-1.4,0-2.8,0.5-2.8-7.8v-3.9c0-8,1.2-8.3,2.8-8.3c1.5,0,1.7,0.4,2.6,2.2v-4.7h-1.2v-4.3L-109.8-91.9
				L-109.8-91.9z M-114.6-80.7c-0.8,0-0.8,1.6-0.8,3.1v5.8c0,1.7,0.4,2.3,0.6,2.3h1.3c0.4,0,1.2-0.7,1.2-0.7v-9.9
				c0,0-0.5-0.9-1.3-0.8L-114.6-80.7z"/>
		</g>
	</g>
	<g id="speechbubble">
		<path id="rect2997" fill="#FFFFFF" d="M297.7,0h241.6C550.8,0,560,9.2,560,20.7v122.6c0,11.5-9.2,20.7-20.7,20.7H297.7
			c-11.5,0-20.7-9.2-20.7-20.7V120l-29-29h29V20.7C277,9.2,286.2,0,297.7,0z"/>
		<g id="g3048">
			<g id="g3005">
				<path id="path3000_00000120542247800183694830000003157208925074658975_" d="M303.5,76.5h28v52h9v15h-37v-15.1l9.5,0.1v-37h-9.5
					V76.5z"/>
				<path id="rect3002" d="M312,52h19v16h-19V52z"/>
			</g>
			<path id="path3009_00000108294640416787797030000000701949167770190984_" d="M347.5,76.5h27V85c10.9-9.3,13-8.5,20.3-8.5
				c14.9,0,19.2,3.3,19.2,17.5v34.5h9v15h-34.5v-15h7V97c0-4.9-1.5-5.9-9-6c-4.1,0-7.5,0.6-12,3v34.5h7v15H347v-15h9V91h-8.5V76.5z"
				/>
			<path id="rect3017" d="M489.4,76.5H519c8.6,0,15.4,9.7,15.4,21.7v23.6c0,12-6.9,21.7-15.4,21.7h-29.6c-8.6,0-15.4-9.7-15.4-21.7
				V98.2C474,86.2,480.9,76.5,489.4,76.5z"/>
			<path id="rect3020" fill="#FFFFFF" d="M495.8,91h16.9c1.8,0,3.3,4.7,3.3,10.4V118c0,5.8-1.5,10.4-3.3,10.4h-16.9
				c-1.8,0-3.3-4.7-3.3-10.4v-16.6C492.5,95.7,494,91,495.8,91z"/>
			<path id="path3015-8_00000029765398171210442690000001913657725607840128_" d="M429.4,143.5H466v-15h-9.5V91.2H469V76.5h-12.5
				v-2.9c0-5.4,0.5-5.9,5-5.9h8.5v-14h-17.8c-9.2,0-14,5.6-14,14v8.8H429v14.7h9.2v37.3h-8.8L429.4,143.5L429.4,143.5z"/>
		</g>
	</g>
</g>
</svg>
