<?xml version="1.0" encoding="utf-8"?>
<!-- Generator: Adobe Illustrator 28.2.0, SVG Export Plug-In . SVG Version: 6.00 Build 0)  -->
<svg version="1.1" id="Ebene_1_Kopie" xmlns="http://www.w3.org/2000/svg" xmlns:xlink="http://www.w3.org/1999/xlink" x="0px"
	 y="0px" viewBox="0 0 1417.3 350" style="enable-background:new 0 0 1417.3 350;" xml:space="preserve">
<style type="text/css">
	.st0{fill:#FA481C;}
</style>
<path class="st0" d="M207,58.9c79.8,0.2,178,21.8,178,101.3V350H244.2v-81.9c-0.1-0.2-34.2,12.1-60.3,20.1
	c-17.6,4.8-30.9,14.8-32,32.8c-1.4,15.1,15.8,29,15.6,29H29.8c-0.2,0-30.7-11-29.8-44c2.8-62.8,51.7-85.8,172-99.7
	c64.8-8,72.1-14.3,72.2-30.5c-0.1-13.4-8-28.5-44.7-29c-52.9,0-49.2,35.8-49.1,35.7H15.7C15.4,182.4,17,59,207,58.9 M636.8,61.8
	c-46.8,6.8-63.2,45.5-63.3,45.4V67.1h-131V350h143V214.5c0.2-23.9,6.9-34.7,15.6-43.2c9.9-10.1,27.2-17.2,46.2-17.1h40.2V67.1
	C687.4,66.9,666.8,57.5,636.8,61.8 M922,0H780.6v67h-58.8v87.1h58.8v115.4c0.1,24.9-0.4,45.2,17.9,64.7c16,16.4,36.9,15.6,61.8,15.7
	H922V154.2h84.9V67.1H922V0z M1216.2,61.1c237.3,2.6,198.9,217.1,198.8,217.4h-253.2V350h-103.5c0.3,0-42.5-38.5-41.7-114.7
	C1018.2,57.9,1208.7,60.9,1216.2,61.1 M1278,207c-0.2-0.2,5.9-58-61.8-58.1c-65.3-0.3-58.1,57.8-58.1,58.1H1278"/>
</svg>
